<svg xmlns="http://www.w3.org/2000/svg" viewBox="0 0 14 16" fill="none" class="injected-svg" data-src="/images/ui/discord.svg" xmlns:xlink="http://www.w3.org/1999/xlink">
<path d="M5.43881 6.71191C4.99212 6.71191 4.63947 7.11191 4.63947 7.59991C4.63947 8.08791 4.99996 8.48791 5.43881 8.48791C5.88551 8.48791 6.23816 8.08791 6.23816 7.59991C6.246 7.11191 5.88551 6.71191 5.43881 6.71191ZM8.29922 6.71191C7.85253 6.71191 7.49987 7.11191 7.49987 7.59991C7.49987 8.08791 7.86036 8.48791 8.29922 8.48791C8.74592 8.48791 9.09857 8.08791 9.09857 7.59991C9.09857 7.11191 8.74592 6.71191 8.29922 6.71191Z" fill="currentColor"></path>
<path d="M12.1079 0H1.60665C0.721102 0 0.00012207 0.736 0.00012207 1.648V12.464C0.00012207 13.376 0.721102 14.112 1.60665 14.112H10.4935L10.0782 12.632L11.0813 13.584L12.0295 14.48L13.7144 16V1.648C13.7144 0.736 12.9934 0 12.1079 0ZM9.0829 10.448C9.0829 10.448 8.80078 10.104 8.56567 9.8C9.59229 9.504 9.98412 8.848 9.98412 8.848C9.66282 9.064 9.35718 9.216 9.0829 9.32C8.69106 9.488 8.3149 9.6 7.94657 9.664C7.19424 9.808 6.50461 9.768 5.91686 9.656C5.47016 9.568 5.08616 9.44 4.76486 9.312C4.58461 9.24 4.38869 9.152 4.19278 9.04C4.16927 9.024 4.14575 9.016 4.12224 9C4.10657 8.992 4.09873 8.984 4.0909 8.976C3.94984 8.896 3.87147 8.84 3.87147 8.84C3.87147 8.84 4.24763 9.48 5.2429 9.784C5.0078 10.088 4.71784 10.448 4.71784 10.448C2.98592 10.392 2.32763 9.232 2.32763 9.232C2.32763 6.656 3.45612 4.568 3.45612 4.568C4.58461 3.704 5.65824 3.728 5.65824 3.728L5.73661 3.824C4.326 4.24 3.67555 4.872 3.67555 4.872C3.67555 4.872 3.84796 4.776 4.13792 4.64C4.97645 4.264 5.64257 4.16 5.91686 4.136C5.96388 4.128 6.00306 4.12 6.05008 4.12C6.52812 4.056 7.06886 4.04 7.6331 4.104C8.37759 4.192 9.17694 4.416 9.99196 4.872C9.99196 4.872 9.37286 4.272 8.04061 3.856L8.15033 3.728C8.15033 3.728 9.22396 3.704 10.3524 4.568C10.3524 4.568 11.4809 6.656 11.4809 9.232C11.4809 9.232 10.8148 10.392 9.0829 10.448Z" fill="currentColor"></path>
</svg>